<svg xmlns="http://www.w3.org/2000/svg" width="795" height="200" viewBox="0 0 795 200">
  <g fill="none" fill-rule="evenodd">
    <path fill="#000" d="M789.596363,81.0546663 L761.291228,108.68827 L745.766747,122.917445 L743.693704,124.917061 L742.034646,126.60234 L742.034646,152.265895 C742.034646,154.270179 741.454132,155 738.654278,155 L724.659679,155 C721.167254,155 720,154.270179 720,151.536074 L720,81.3752274 C720,78.641122 721.400705,78.0077806 724.659679,78.0077806 L739.001342,78.0077806 C742.034646,78.0077806 742.034646,78.9539024 742.034646,81.3752274 L742.034646,104.298452 L765.813948,80.7356615 C768.730528,78 768.493964,78 770.711747,78 L786.68601,78 C790.072603,78 792.74795,78.1104846 789.596363,81.0546663"/>
    <path fill="#000" d="M747 123.838767L764.973646 116 793.997177 151.85829C796.224346 154.585964 794.466054 155 791.424601 155L774.807575 155C772.463186 155 771.878652 154.689861 770.118797 152.594871L747 123.838767zM290.806179 81.1738416C291.977059 82.1137289 287.527713 94.5533226 285.896285 94.1359385 281.139387 92.6194427 276.159241 91.9098896 271.163483 92.0397425 260.408553 92.0397425 252.452809 94.9645233 252.452809 106.781133L252.452809 128.196032C252.452809 137.492877 257.717089 141.468848 267.070084 141.468848 273.452165 141.495128 279.78741 140.396016 285.779197 138.222527 287.652606 137.808234 291.399425 151.082596 290.109895 152.135332 287.888344 153.591539 278.412016 156 265.201359 156 240.761175 156 230 145.341245 230 130.916758L230 104.99411C230 89.7456755 237.952622 77 269.185475 77 283.671612 77 289.171629 79.818116 290.806179 81.1738416M495.628309 92.6236237L485.445301 92.6236237C483.337557 92.6236237 482.754066 92.9348753 482.754066 94.6203027L482.754066 151.53577C482.754066 154.270115 481.587084 155 478.198468 155L465.339826 155C461.595499 155 460.659418 154.582923 460.659418 151.53577L460.659418 94.621859C460.659418 92.9348753 460.071246 92.62518 457.966623 92.62518L440.922135 92.62518C438.11389 92.62518 438 91.6789751 438 90.4090686L438 80.3105106C438 78.3138316 439.522693 78.00258 442.437027 78.00258L501.804888 78.00258C502.538152 77.9901299 503.271416 78.0228113 504 78.099068L495.628309 92.6236237zM713.806171 81.1738416C714.977082 82.1137289 710.527621 94.5533226 708.897714 94.1359385 704.142255 92.6194427 699.160421 91.9098896 694.166096 92.0397425 683.407769 92.0397425 675.456505 94.9645233 675.456505 106.781133L675.456505 128.196032C675.456505 137.492877 680.716236 141.468848 690.071032 141.468848 696.453275 141.495128 702.788683 140.396016 708.780623 138.222527 710.65408 137.808234 714.400994 151.082596 713.10987 152.135332 710.886701 153.591539 701.411692 156 688.196013 156 663.759888 156 653 145.341245 653 130.916758L653 104.99411C653 89.7456755 660.951264 77 692.175548 77 706.669861 77 712.170019 79.818116 713.806171 81.1738416M365.627284 151.535724C366.784861 154.895729 365.163014 155 361.91313 155L347.071991 155C344.286375 155 344.178046 154.377489 343.478547 152.265618L339.654516 140.904784 313.232955 140.904784 309.518802 152.265618C308.819303 154.374376 308.356581 155 305.920715 155L293.057363 155C291.324091 155 290.394005 154.377489 291.440159 151.535724L314.972417 81.3677871C315.780246 78.8403905 316.708784 78 320.068546 78L336.878186 78C340.358658 78 341.168034 78.8419468 342.093477 81.3677871L365.627284 151.535724zM335.370859 128.177537L326.446057 100.713887 317.521255 128.171312 335.370859 128.177537zM437.664658 102.405178C437.664658 113.022821 429.283309 119.544665 423.948736 121.443174 422.319029 122.065636 422.435437 121.86178 423.017475 123.130046L437.197475 151.425606C438.363103 153.632233 438.594367 155.107468 435.569321 154.993869L418.595538 154.993869C415.336124 154.891162 415.225925 153.839202 414.296216 151.945362L402.090489 127.64445C401.624859 126.804127 401.274084 126.804127 400.227967 126.804127L393.136415 126.804127C392.093403 126.804127 391.975443 127.227401 391.975443 128.383624L391.975443 151.634131C391.975443 154.369851 390.693407 154.993869 387.558162 154.993869L372.906323 154.993869C369.771078 154.993869 370.003893 153.733383 370.003893 151.313563L370.003893 80.7341682C370.003893 78.7391779 370.585931 78.0000044 373.491465 78.0000044L404.190483 78.0000044C426.269128 77.9922237 437.66621 88.1990421 437.66621 102.405178L437.664658 102.405178zM415.575148 101.874529C415.575148 95.7712907 409.529712 92.6216336 402.672527 92.6216336L394.412243 92.6216336C392.670785 92.6216336 392.315353 93.6704819 392.315353 94.5154739L392.315353 109.342515C392.315353 110.922012 392.780984 111.346843 394.643506 111.346843L405.456998 111.346843C410.921947 111.346843 415.575148 108.290555 415.575148 101.874529L415.575148 101.874529zM572.667397 102.405178C572.667397 113.022821 564.297932 119.544665 558.944393 121.443174 557.317687 122.065636 557.44031 121.86178 558.013072 123.130046L572.200185 151.425606C573.359679 153.632233 573.597165 155.107468 570.570374 154.993869L553.604823 154.993869C550.345202 154.891162 550.231891 153.839202 549.299019 151.945362L537.092514 127.64445C536.626854 126.804127 536.279161 126.804127 535.229873 126.804127L528.144078 126.804127C527.096343 126.804127 526.976823 127.227401 526.976823 128.383624L526.976823 151.634131C526.976823 154.369851 525.700915 154.993869 522.557709 154.993869L507.915801 154.993869C504.771043 154.993869 505.003873 153.733383 505.003873 151.313563L505.003873 80.7341682C505.003873 78.7391779 505.584396 78.0000044 508.494772 78.0000044L539.18488 78.0000044C561.275798 77.9922237 572.668949 88.1990421 572.668949 102.405178L572.667397 102.405178zM550.579584 101.874529C550.579584 95.7712907 544.526002 92.6216336 537.674589 92.6216336L529.419987 92.6216336C527.676866 92.6216336 527.327621 93.6704819 527.327621 94.5154739L527.327621 109.342515C527.327621 110.922012 527.793281 111.346843 529.655921 111.346843L540.470102 111.346843C545.929191 111.346843 550.579584 108.290555 550.579584 101.874529L550.579584 101.874529zM649.626021 151.535724C650.78677 154.895729 649.161721 155 645.911624 155L631.084989 155C628.299192 155 628.184664 154.377489 627.49131 152.265618L623.667029 140.904784 597.234452 140.904784 593.520055 152.265618C592.822058 154.374376 592.362401 155 589.927924 155L577.062181 155C575.322605 155 574.395554 154.377489 575.43868 151.535724L598.963194 81.3677871C599.774171 78.8403905 600.705866 78 604.07049 78L620.876589 78C624.352645 78 625.163622 78.8419468 626.089126 81.3677871L649.626021 151.535724zM619.378448 128.177537L610.448419 100.713887 601.523033 128.171312 619.378448 128.177537z"/>
    <path fill="#F47735" d="M94,0 C102.284319,0 109,6.71568123 109,15 C109,23.2843188 102.284319,30 94,30 C85.7156812,30 79,23.2843188 79,15 C79,6.71568123 85.7156812,0 94,0"/>
    <path fill="#000" d="M167.748868,193.822872 C162.663919,200.49144 153.131779,201.779775 146.457103,196.699479 C145.993562,196.346702 145.551798,195.967506 145.131812,195.564999 L116.449838,166.814472 C103.910905,154.285458 83.5788877,154.283904 71.0383991,166.812918 L71.0368436,166.814472 L43.467057,195.347427 C37.6479094,201.388146 28.0286609,201.569974 21.9824094,195.756151 C21.5484233,195.338103 21.1393252,194.893635 20.7566708,194.42741 C7.57998027,177.643319 0,159.962522 0,136.177288 C0,134.236239 0.0559982125,132.302961 0.177327673,130.385223 L29.3990616,130.385223 C29.259066,132.292082 29.1875128,134.226915 29.1859573,136.188167 C29.1470696,147.912166 31.8085402,159.486973 36.9634868,170.01899 L94.3616546,74 L151.090955,169.897772 C156.208569,159.39839 158.849818,147.867097 158.814042,136.188167 C158.814042,134.225361 158.744044,132.292082 158.605604,130.385223 L187.827338,130.385223 C187.94089,132.301407 187.998444,134.233131 187.999999,136.177288 C188.00311,159.598866 180.631568,177.191081 167.748868,193.822872"/>
    <path fill="#000" d="M1,120.995321 C9.40119545,69.6163846 57.6247087,34.8147203 108.711173,43.2640129 C148.381503,49.8244198 179.476938,81.0963169 186,120.995321 L156.649322,120.995321 C150.272044,88.5083601 123.98128,64.8606355 93.5,64.8606355 C63.0187197,64.8606355 36.7202019,88.5145992 30.3475764,121 L1,120.995321 Z"/>
    <path fill="#F47735" d="M241.143024 182.886626C240.981864 182.52507 240.740891 182.207721 240.440058 181.956684 240.136156 181.710384 239.787743 181.525659 239.414772 181.41514 239.015708 181.295147 238.602831 181.235151 238.186884 181.23673L236.105614 181.23673C235.942919 181.214626 235.781759 181.282516 235.680458 181.41514 235.615994 181.52408 235.580692 181.64723 235.577623 181.775117L235.577623 186.996367C235.559204 187.15583 235.600645 187.316873 235.694272 187.446338 235.830874 187.544227 235.998174 187.586856 236.163939 187.566331L238.655016 187.566331C239.004964 187.566331 239.350308 187.506334 239.680303 187.386342 240.011832 187.267928 240.312665 187.072151 240.559777 186.816378 240.832982 186.52587 241.041723 186.178523 241.173721 185.798021 241.341021 185.307 241.420834 184.787559 241.408555 184.266539 241.420834 183.791306 241.330277 183.320809 241.143024 182.886626L241.143024 182.886626zM244.785246 190.237741C242.745418 191.559237 240.346432 192.167093 237.942842 191.974474L236.10101 191.974474C235.924501 191.950791 235.746457 191.999735 235.603715 192.110255 235.503949 192.287086 235.464043 192.492336 235.487066 192.694428L235.487066 198.03567C235.487066 198.436698 235.399579 198.695629 235.22614 198.815621 234.968283 198.956139 234.67666 199.017714 234.385037 198.99561L230.729001 198.99561C230.342216 198.99561 230.124266 198.905616 230.076685 198.725627 230.02143 198.469854 229.996872 198.207765 230.004547 197.945676L230.004547 177.815367C229.983059 177.602222 230.038314 177.389078 230.158033 177.215405 230.365239 177.065414 230.62156 177.000681 230.873277 177.035416L238.573669 177.035416C240.85447 176.833323 243.127598 177.501176 244.961755 178.909508 246.412198 180.445727 247.145861 182.55191 246.975491 184.686512 247.15507 186.791116 246.340059 188.856249 244.785246 190.237741L244.785246 190.237741zM275.563287 194.777323C275.31006 195.502319 274.917559 196.17298 274.406358 196.753598 273.952132 197.265908 273.399781 197.688176 272.782541 197.995562 272.190624 198.287423 271.563888 198.510977 270.91816 198.660012 270.30092 198.804391 269.672601 198.897538 269.039534 198.941007 268.427042 198.979818 267.881022 199 267.399891 199 266.524676 198.992238 265.649461 198.922377 264.783743 198.793524 263.826229 198.656907 262.900369 198.358836 262.047311 197.908624 261.165766 197.439783 260.42033 196.759808 259.88064 195.932349 259.247574 194.87047 258.943702 193.650241 259.008591 192.420697L259.008591 177.787258C258.986434 177.577677 259.04341 177.368095 259.166858 177.197325 259.350447 177.056052 259.583099 176.992401 259.814168 177.020345L263.332437 177.020345C263.645805 176.995506 263.960756 177.062262 264.234557 177.21285 264.443469 177.416221 264.54476 177.703425 264.505193 177.989077L264.505193 190.646241C264.433973 191.644469 264.726767 192.634935 265.331345 193.440659 265.821972 194.050774 266.570574 194.403181 267.361907 194.398524 267.869943 194.417154 268.374814 194.322454 268.836953 194.11753 269.204131 193.942102 269.512751 193.665765 269.723246 193.32112 269.943237 192.948531 270.092007 192.537131 270.158479 192.111758 270.242361 191.610315 270.281928 191.102663 270.278762 190.593457L270.278762 177.78881C270.198046 177.441061 270.421202 177.094863 270.77572 177.015688 270.878593 176.992401 270.987797 176.995506 271.09067 177.021898L274.789363 177.021898C275.102731 177.001716 275.416099 177.068471 275.691483 177.214402 275.919387 177.406907 276.031757 177.698768 275.99219 177.99063L275.99219 191.917701C276.017513 192.887986 275.87349 193.855165 275.563287 194.777323M303.884391 180.998494C303.816922 181.118667 303.608384 181.178753 303.257241 181.178753L298.799726 181.178753C298.614188 181.158197 298.425583 181.194565 298.259979 181.283114 298.172577 181.354268 298.129642 181.509228 298.129642 181.749573L298.129642 198.006095C298.16491 198.293877 298.074441 198.583241 297.882769 198.796705 297.614429 198.953246 297.304687 199.021238 296.998013 198.991195L293.808597 198.991195C293.491189 199.02282 293.170714 198.969058 292.880906 198.833073 292.727569 198.723969 292.649367 198.447256 292.649367 198.007676L292.649367 181.751155C292.649367 181.510809 292.606433 181.35585 292.51903 181.284695 292.353426 181.196146 292.164821 181.159778 291.979283 181.180334L287.733373 181.180334C287.383764 181.180334 287.175226 181.120248 287.106224 181.000075 287.034155 180.862509 286.998888 180.705968 287.005021 180.549428L287.005021 177.663701C286.974354 177.440749 287.08629 177.222541 287.282562 177.122924 287.549369 177.029632 287.831509 176.98852 288.11365 177.002751L302.887698 177.002751C303.163706 176.991683 303.438179 177.028051 303.703453 177.107112 303.907391 177.192498 304.026994 177.409125 303.994794 177.633658L303.994794 180.547846C303.99786 180.705968 303.959526 180.860928 303.884391 180.998494M330.885914 180.998518C330.818439 181.118691 330.609882 181.178778 330.258708 181.178778L325.80079 181.178778C325.615236 181.158222 325.426614 181.19459 325.260995 181.283139 325.153649 181.411219 325.10611 181.581992 325.129113 181.749602L325.129113 198.006221C325.164383 198.294005 325.07544 198.58337 324.883751 198.796836 324.615386 198.953377 324.305617 199.02137 323.998915 198.991327L320.809211 198.991327C320.494841 199.022952 320.177405 198.967609 319.889105 198.833204 319.735753 198.724099 319.657544 198.447384 319.657544 198.007802L319.657544 181.751183C319.657544 181.510836 319.614606 181.355876 319.527196 181.28472 319.361577 181.196172 319.172955 181.159803 318.9874 181.180359L314.73344 181.180359C314.383799 181.180359 314.175242 181.120273 314.106233 181.000099 314.034158 180.862532 313.998888 180.705991 314.005022 180.549449L314.005022 177.663705C313.974352 177.440752 314.086298 177.222542 314.282587 177.122925 314.549418 177.029632 314.830051 176.98852 315.112217 177.002751L329.887598 177.002751C330.16363 176.991683 330.438129 177.028051 330.703426 177.107112 330.907383 177.192499 331.026997 177.409127 330.994793 177.633662L330.994793 180.547868C330.99786 180.705991 330.961056 180.860951 330.885914 180.998518M347.813154 198.834651C347.597019 198.965843 347.338997 199.021165 347.084326 198.992714L343.214003 198.992714C342.890638 199.019585 342.565598 198.956359 342.279093 198.812522 342.067985 198.616524 341.967457 198.338332 342.009344 198.061722L342.009344 177.845448C341.975834 177.602031 342.05123 177.357033 342.215426 177.168938 342.503606 177.029842 342.828646 176.97452 343.150335 177.010875L347.171451 177.010875C347.53 177.010875 347.757863 177.086745 347.851689 177.236905 347.963945 177.467677 348.012534 177.720578 347.994104 177.973479L347.994104 198.248236C348.020911 198.45846 347.955568 198.670265 347.813154 198.834651M378.86395 198.713531C378.784916 198.923848 378.574685 199.016451 378.231677 198.997616L375.095603 198.908153C374.825306 198.906584 374.558171 198.839094 374.319488 198.713531 374.104515 198.564426 373.929059 198.365095 373.812088 198.132805L366.876053 187.09743C366.675307 186.758411 366.517238 186.570067 366.401848 186.530829 366.281717 186.491591 366.221651 186.687782 366.221651 187.127251L366.221651 197.800064C366.256426 198.093566 366.201102 198.390208 366.063582 198.65075 365.957677 198.779451 365.673154 198.843802 365.206852 198.843802L361.783094 198.843802C361.659801 198.843802 361.536507 198.81712 361.422698 198.768465 361.299405 198.71667 361.19508 198.628776 361.122369 198.51577 361.030689 198.352539 360.989591 198.165765 361.002237 197.97899L361.002237 177.969036C361.002237 177.929798 361.002237 177.860738 361.018044 177.760288 361.029108 177.65356 361.054399 177.546832 361.092336 177.446382 361.136595 177.331806 361.207725 177.228217 361.302566 177.148171 361.410053 177.055569 361.550734 177.006913 361.692995 177.013191L364.85436 177.013191C365.055107 177.010052 365.255854 177.019469 365.45502 177.043012 365.575151 177.057138 365.692122 177.091668 365.799608 177.146601 365.884965 177.192118 365.957677 177.258038 366.009839 177.339654 366.077809 177.443243 366.152101 177.543693 366.234296 177.637865L373.233559 189.001271C373.393208 189.280648 373.53863 189.399932 373.668246 189.360694 373.797862 189.321456 373.86267 189.051496 373.864251 188.553955L373.864251 177.969036C373.865832 177.736745 373.919575 177.506024 374.022319 177.297276 374.109257 177.079112 374.346359 176.958258 374.575558 177.013191L378.249065 177.013191C378.476683 176.981801 378.704301 177.072833 378.846563 177.25176 378.961952 177.482481 379.014115 177.739884 378.996727 177.997287L378.996727 197.803203C379.006211 198.112401 378.960372 198.420029 378.86395 198.713531M408.731011 194.584976C408.561697 195.391434 408.193283 196.144332 407.65869 196.780928 407.014357 197.507812 406.188168 198.058712 405.260077 198.380071 403.899295 198.836095 402.46483 199.044213 401.02723 198.992183 399.569249 199.02738 398.115971 198.831504 396.722267 198.410677 395.682868 198.093909 394.731261 197.55219 393.936427 196.825307 393.254468 196.177998 392.743391 195.380722 392.447092 194.499281 392.142954 193.584173 391.992453 192.626218 392.000291 191.663671L392.000291 185.149269C391.99402 184.094906 392.128844 183.043603 392.401628 182.022906 392.66814 181.048118 393.185488 180.157495 393.90664 179.435202 394.761048 178.618033 395.802015 178.010512 396.944884 177.661608 398.565907 177.179569 400.255911 176.957679 401.94905 177.006648 402.790916 176.995936 403.632782 177.046435 404.46681 177.159676 405.065679 177.243841 405.658278 177.370854 406.238335 177.537655 406.623994 177.646305 406.998679 177.793212 407.35612 177.973785 407.553653 178.071723 407.738644 178.194145 407.90639 178.336461 407.986344 178.414506 407.980073 178.65629 407.890713 179.064875 407.793514 179.497944 407.669664 179.926422 407.519163 180.344189 407.378068 180.749713 407.204051 181.142995 406.998679 181.520974 406.808985 181.860697 406.655348 182.001482 406.536202 181.941801 406.357481 181.865287 406.153678 181.788773 405.92479 181.695426 405.65671 181.597488 405.383927 181.514853 405.10644 181.449051 404.733322 181.361825 404.355502 181.299084 403.974545 181.259296 403.460333 181.207267 402.942985 181.182782 402.425637 181.185843 401.81109 181.179722 401.198111 181.231751 400.592971 181.338871 400.058378 181.432218 399.553572 181.646457 399.119313 181.964756 398.670945 182.31519 398.326046 182.777334 398.120675 183.30222 397.847891 184.027573 397.720906 184.797304 397.749125 185.570096L397.749125 191.048499C397.669171 192.119695 397.907464 193.189361 398.434219 194.132013 399.029953 194.854306 399.962747 195.227694 400.906515 195.122105 401.679402 195.20627 402.452288 194.979789 403.051158 194.49622 403.474442 194.00653 403.687652 193.377585 403.646892 192.737928L403.646892 190.557279C403.648459 190.413433 403.623376 190.269586 403.571641 190.134922 403.521474 190.009439 403.358431 189.935985 403.079377 189.916091L401.590041 189.916091C401.428566 189.931394 401.268659 189.896198 401.129131 189.815093 401.039771 189.747761 400.995875 189.57943 400.995875 189.30704L400.995875 187.01162C400.994307 186.870834 401.008417 186.728518 401.039771 186.590793 401.069558 186.46531 401.194976 186.402568 401.412889 186.402568L407.646148 186.402568C408.033375 186.352069 408.426873 186.430113 408.763933 186.621398 408.953628 186.910621 409.032014 187.254934 408.988118 187.596187L408.988118 192.187027C408.984982 192.993485 408.898757 193.796882 408.731011 194.584976M455.368522 178.610902C455.128645 179.032897 454.803549 179.608202 454.393233 180.338396 453.982917 181.06859 453.542616 181.854102 453.073909 182.694932 452.603624 183.537342 452.12387 184.389235 451.634647 185.24745L450.299542 187.589761C449.898695 188.289925 449.458395 189.080179 448.980219 189.960521L448.980219 198.15861C449.016516 198.416232 448.913937 198.672274 448.711935 198.835066 448.432605 198.963087 448.12329 199.016825 447.817131 198.993117L444.176367 198.993117C443.942802 199.019986 443.706081 198.967829 443.505658 198.842969 443.380985 198.69124 443.324172 198.495257 443.347844 198.300855L443.347844 189.924169 436.211504 177.849098C435.970049 177.44923 435.935329 177.208993 436.107347 177.128387 436.359849 177.035137 436.628132 176.994044 436.896416 177.008268L441.125826 177.008268C441.379906 176.978239 441.638721 177.030395 441.861238 177.158416 442.042724 177.359141 442.19896 177.581992 442.326789 177.820649L446.745575 185.539844C447.342112 184.457197 447.848694 183.546825 448.266901 182.807147L449.551505 180.524896C449.991805 179.744125 450.353199 179.108762 450.63253 178.617224 450.91186 178.125687 451.061783 177.863322 451.082299 177.826971 451.1833 177.66892 451.262207 177.536157 451.322176 177.436586 451.375833 177.343336 451.446849 177.26273 451.532068 177.196349 451.622022 177.131548 451.724601 177.085713 451.831914 177.060425 451.999197 177.027234 452.171214 177.011429 452.341653 177.016171L455.070254 177.016171C455.355897 176.997205 455.64154 177.038298 455.909823 177.136289 456.067637 177.216895 456.018715 177.487162 455.7599 177.947089 455.737806 177.969216 455.606821 178.188907 455.368522 178.610902M478.43309 184.846179C478.483964 183.963763 478.22497 183.090524 477.700815 182.376333 477.151994 181.749313 476.338012 181.415923 475.502448 181.475566 474.973668 181.455685 474.44643 181.55509 473.960816 181.764607 473.589283 181.934361 473.267082 182.194344 473.023504 182.520089 472.796885 182.841245 472.639638 183.205222 472.561015 183.59061 472.4716 184.000467 472.428435 184.4195 472.428435 184.840061L472.428435 191.110258C472.416101 191.625637 472.505516 192.139488 472.692054 192.621222 472.844675 193.014256 473.080545 193.372116 473.381163 193.668804 473.655573 193.934905 473.985483 194.138304 474.347766 194.265237 474.7008 194.389112 475.072333 194.453343 475.446949 194.453343 476.282514 194.516045 477.102662 194.207123 477.68694 193.61069 478.260427 192.797094 478.524046 191.809155 478.43309 190.821217L478.43309 184.846179zM483.54514 194.959547C483.281521 195.69056 482.872989 196.36193 482.344209 196.935423 481.874012 197.440097 481.306691 197.845366 480.674622 198.12676 480.073386 198.394391 479.4444 198.599319 478.799998 198.738487 478.19722 198.868479 477.583651 198.946474 476.966998 198.970943 476.381178 198.989295 475.887856 199 475.473157 199 475.004501 199 474.472638 198.980119 473.876027 198.941886 473.260916 198.900594 472.65043 198.818011 472.04611 198.695666 471.409416 198.565674 470.788138 198.366863 470.196152 198.099233 469.594916 197.831602 469.049178 197.45692 468.585147 196.993537 468.093366 196.49498 467.7095 195.901605 467.458214 195.250117 467.152971 194.431933 467.008058 193.563281 467.032724 192.691571L467.032724 184.321623C466.83077 182.250929 467.570753 180.198587 469.053803 178.727385 470.829763 177.46417 472.997297 176.861619 475.177164 177.026785 476.270181 177.025256 477.360114 177.136896 478.428465 177.361705 479.439775 177.565104 480.400212 177.965785 481.255817 178.537749 482.103715 179.11889 482.789741 179.903429 483.249147 180.819489 483.784093 181.949654 484.038462 183.1884 483.995297 184.436322L483.995297 192.02326C484.023046 193.020374 483.870425 194.015959 483.54514 194.959547L483.54514 194.959547zM512.555341 194.777723C512.300786 195.50265 511.908676 196.173247 511.397984 196.75381 510.944212 197.266072 510.393993 197.6883 509.777369 197.995657 509.18446 198.287491 508.558349 198.511023 507.913265 198.660045 507.296641 198.804409 506.668949 198.897548 506.036513 198.941012 505.424632 198.97982 504.879156 199 504.398505 199 503.524163 198.992238 502.649821 198.922385 501.784966 198.793543 500.828407 198.65694 499.903471 198.357345 499.051264 197.908728 498.172179 197.439931 497.427486 196.76002 496.888335 195.93264 496.255899 194.870861 495.95233 193.650747 496.017155 192.421319L496.017155 177.789265C495.934938 177.4431 496.156291 177.096936 496.508874 177.016216 496.614806 176.992931 496.723902 176.994483 496.828253 177.022425L500.344594 177.022425C500.65765 176.997588 500.972286 177.064337 501.245815 177.214911 501.454519 177.416711 501.555708 177.70544 501.516181 177.991065L501.516181 190.647031C501.445032 191.645165 501.737533 192.635538 502.341509 193.441185 502.831647 194.04969 503.579502 194.403616 504.370046 194.398959 504.875994 194.419139 505.380361 194.322896 505.842039 194.117992 506.210433 193.942581 506.517164 193.66627 506.727449 193.321658 506.948801 192.949104 507.097424 192.539295 507.163829 192.11241 507.246046 191.611014 507.285573 191.10341 507.282411 190.594253L507.282411 177.790817C507.201775 177.4431 507.423128 177.096936 507.777292 177.017768 507.881643 176.994483 507.990739 176.996036 508.09509 177.023977L511.790094 177.023977C512.10315 177.003797 512.414624 177.070546 512.691315 177.216463 512.918992 177.408949 513.03283 177.700783 512.991722 177.992617L512.991722 191.918371C513.015438 192.888564 512.866816 193.855652 512.555341 194.777723M547.807231 198.834652C547.591071 198.965843 547.33302 199.021165 547.078319 198.992714L543.212571 198.992714C542.889168 199.019584 542.56409 198.95636 542.277552 198.812523 542.066419 198.616526 541.967555 198.338337 542.009447 198.061729L542.009447 177.845596C541.975934 177.60218 542.049663 177.357184 542.215553 177.16909 542.503767 177.028415 542.828845 176.974674 543.150571 177.011028L547.172156 177.011028C547.530748 177.011028 547.758637 177.086898 547.852474 177.237057 547.964744 177.467827 548.013338 177.720727 547.994905 177.973626L547.994905 198.248242C548.02004 198.460045 547.951338 198.671848 547.807231 198.834652M577.863893 198.713531C577.783285 198.923848 577.574654 199.016451 577.231677 198.997616L574.095891 198.908153C573.825619 198.906584 573.558508 198.839094 573.319847 198.713531 573.104894 198.564426 572.931035 198.365095 572.812494 198.132805L565.873934 187.09743C565.673206 186.758411 565.515152 186.570067 565.399773 186.530829 565.281232 186.491591 565.221172 186.687782 565.221172 187.127251L565.221172 197.800064C565.255944 198.093566 565.200625 198.390208 565.063118 198.65075 564.95248 198.779451 564.666403 198.843802 564.206467 198.843802L560.783022 198.843802C560.65816 198.843802 560.534878 198.81712 560.421079 198.768465 560.297797 198.71667 560.193482 198.628776 560.122357 198.51577 560.030686 198.352539 559.989592 198.165765 560.002237 197.97899L560.002237 177.969036C560.002237 177.929798 560.002237 177.860738 560.016461 177.760288 560.029106 177.65356 560.054394 177.548401 560.092327 177.446382 560.136582 177.331806 560.209287 177.228217 560.302539 177.148171 560.410015 177.055569 560.550683 177.006913 560.692931 177.013191L563.854007 177.013191C564.054735 177.010052 564.255463 177.019469 564.454611 177.043012 564.574732 177.057138 564.691692 177.091668 564.800749 177.146601 564.886098 177.192118 564.958803 177.259608 565.01096 177.339654 565.078923 177.443243 565.154789 177.543693 565.236977 177.637865L572.235598 189.001271C572.395232 189.280648 572.540642 189.399932 572.670246 189.360694 572.79985 189.321456 572.866232 189.046788 572.866232 188.553955L572.866232 177.969036C572.867813 177.736745 572.921551 177.506024 573.024286 177.297276 573.111216 177.079112 573.348296 176.958258 573.577474 177.013191L577.250644 177.013191C577.478241 176.981801 577.705839 177.072833 577.848087 177.25176 577.963466 177.482481 578.014044 177.739884 577.996658 177.997287L577.996658 197.803203C578.00456 198.112401 577.960305 198.420029 577.863893 198.713531M621.990078 178.529021C621.964349 178.769371 621.921971 179.008189 621.86143 179.242415 621.793323 179.513383 621.71008 179.804251 621.616243 180.113491 621.522406 180.42273 621.419487 180.705945 621.313542 180.958541 621.227273 181.172866 621.121327 181.378005 620.99722 181.570897 620.891275 181.723986 620.809546 181.795937 620.752033 181.776036L620.192036 181.586206C619.95593 181.509661 619.715283 181.446895 619.471609 181.397906 619.144692 181.329016 618.813235 181.278497 618.480264 181.244818 618.095835 181.206545 617.646324 181.186644 617.128706 181.186644 616.511197 181.182051 615.893688 181.240225 615.288286 181.361165 614.763101 181.463735 614.266672 181.682652 613.835323 182.001077 613.408516 182.330218 613.077058 182.766521 612.871222 183.267121 612.621494 183.910095 612.504954 184.597464 612.526143 185.287894L612.526143 191.25836C612.430793 192.290179 612.769817 193.314343 613.459975 194.079787 614.204618 194.70439 615.156612 195.016691 616.120713 194.952394 616.692817 194.958517 617.266435 194.918714 617.832485 194.836046 618.321347 194.757971 618.752695 194.67071 619.12653 194.574264 619.447393 194.494658 619.765229 194.396681 620.075497 194.283396 620.334306 194.188481 620.549223 194.110405 620.723276 194.052231 620.838302 194.03233 620.971491 194.20532 621.125868 194.575795 621.293867 194.987604 621.433109 195.41013 621.543595 195.84184 621.660134 196.281205 621.750945 196.728225 621.816025 197.179837 621.873538 197.597769 621.864457 197.844242 621.787269 197.920787 621.151597 198.269829 620.459927 198.507117 619.74404 198.618872 618.400049 198.895963 617.028815 199.021496 615.657581 198.997002 614.345374 199.021496 613.036194 198.845444 611.775446 198.473438 610.785615 198.181038 609.865405 197.68503 609.072329 197.019093 608.379145 196.422047 607.840338 195.664257 607.50434 194.80849 607.162288 193.919044 606.991263 192.971424 607.000344 192.01615L607.000344 184.799541C606.99429 183.779969 607.139586 182.76499 607.431692 181.788283 607.720771 180.848317 608.241416 179.997143 608.945195 179.315898 609.78973 178.536676 610.797723 177.961062 611.893499 177.631921 613.432732 177.172654 615.035531 176.961391 616.639845 177.005787 617.39811 176.998133 618.156375 177.042528 618.910099 177.137444 619.438312 177.203272 619.961984 177.305841 620.478089 177.443621 620.817113 177.530882 621.14403 177.657946 621.454298 177.821751 621.635918 177.916666 621.805431 178.034544 621.958295 178.172324 622.000673 178.204473 622.009754 178.325413 621.990078 178.529021M646.431548 184.846179C646.482422 183.963763 646.223428 183.090524 645.699273 182.376333 645.150452 181.749313 644.336471 181.415923 643.500906 181.475566 642.972127 181.455685 642.444889 181.55509 641.959275 181.764607 641.587742 181.934361 641.265541 182.194344 641.021963 182.520089 640.795343 182.841245 640.638096 183.205222 640.559473 183.59061 640.470059 184.000467 640.426893 184.4195 640.426893 184.840061L640.426893 191.110258C640.41456 191.625637 640.503974 192.139488 640.690512 192.621222 640.843133 193.014256 641.079003 193.372116 641.379621 193.668804 641.654032 193.934905 641.983941 194.138304 642.346224 194.265237 642.699258 194.389112 643.070791 194.453343 643.445408 194.453343 644.280972 194.516045 645.10112 194.207123 645.685398 193.61069 646.258885 192.797094 646.522504 191.809155 646.431548 190.821217L646.431548 184.846179zM651.543599 194.959547C651.27998 195.69056 650.871447 196.36193 650.342668 196.935423 649.87247 197.440097 649.30515 197.845366 648.673081 198.12676 648.071844 198.394391 647.442858 198.599319 646.798456 198.738487 646.195679 198.868479 645.583651 198.946474 644.966998 198.970943 644.381178 198.989295 643.887856 199 643.473157 199 643.004501 199 642.472638 198.980119 641.876027 198.941886 641.260916 198.900594 640.65043 198.818011 640.04611 198.695666 639.409416 198.565674 638.788138 198.366863 638.196152 198.099233 637.594916 197.831602 637.049178 197.45692 636.585147 196.993537 636.093366 196.49498 635.7095 195.901605 635.458214 195.250117 635.152971 194.431933 635.008058 193.563281 635.032724 192.691571L635.032724 184.321623C634.83077 182.250929 635.570753 180.198587 637.053803 178.727385 638.829763 177.46417 640.997297 176.861619 643.177164 177.026785 644.270181 177.025256 645.360114 177.136896 646.428465 177.361705 647.439775 177.565104 648.400212 177.965785 649.255817 178.537749 650.103715 179.11889 650.789741 179.903429 651.249147 180.819489 651.784093 181.949654 652.038462 183.1884 651.995297 184.436322L651.995297 192.02326C652.023046 193.020374 651.870425 194.015959 651.543599 194.959547L651.543599 194.959547zM681.867054 198.713531C681.786446 198.923848 681.577815 199.016451 681.234839 198.997616L678.099052 198.908153C677.82878 198.906584 677.561669 198.839094 677.323008 198.713531 677.108055 198.564426 676.934196 198.365095 676.815655 198.132805L669.877095 187.09743C669.676367 186.758411 669.518313 186.570067 669.402934 186.530829 669.284393 186.491591 669.224333 186.687782 669.224333 187.127251L669.224333 197.800064C669.259105 198.093566 669.203786 198.390208 669.066279 198.65075 668.955642 198.779451 668.669564 198.843802 668.209628 198.843802L664.781442 198.843802C664.65816 198.843802 664.534878 198.81712 664.421079 198.768465 664.297797 198.71667 664.193482 198.628776 664.122357 198.51577 664.030686 198.352539 663.989592 198.165765 664.002237 197.97899L664.002237 177.969036C664.002237 177.929798 664.002237 177.860738 664.016461 177.760288 664.029106 177.65356 664.054394 177.548401 664.092327 177.446382 664.136582 177.331806 664.209287 177.228217 664.302539 177.148171 664.410015 177.055569 664.550683 177.006913 664.692931 177.013191L667.854007 177.013191C668.054735 177.010052 668.255463 177.019469 668.454611 177.043012 668.574732 177.057138 668.691692 177.091668 668.800749 177.146601 668.886098 177.192118 668.958803 177.259608 669.01096 177.339654 669.078923 177.443243 669.154789 177.543693 669.236977 177.637865L676.235598 189.001271C676.395232 189.280648 676.540642 189.399932 676.670246 189.360694 676.79985 189.321456 676.866232 189.046788 676.866232 188.553955L676.866232 177.969036C676.867813 177.736745 676.921551 177.506024 677.024286 177.297276 677.111216 177.079112 677.348296 176.958258 677.577474 177.013191L681.250644 177.013191C681.478241 176.981801 681.705839 177.072833 681.848087 177.25176 681.963466 177.482481 682.014044 177.739884 681.996658 177.997287L681.996658 197.803203C682.006141 198.112401 681.961886 198.420029 681.867054 198.713531M710.882845 180.998518C710.81537 181.118691 710.605279 181.178778 710.257172 181.178778L705.797722 181.178778C705.612167 181.159803 705.425079 181.196172 705.25946 181.283139 705.153647 181.4128 705.106109 181.581992 705.129111 181.749602L705.129111 198.006221C705.165916 198.294005 705.075438 198.584951 704.882216 198.796836 704.613852 198.953377 704.305616 199.02137 703.998914 198.991327L700.809211 198.991327C700.494841 199.022952 700.177404 198.967609 699.889104 198.833204 699.735753 198.724099 699.657544 198.447384 699.657544 198.007802L699.657544 181.751183C699.680546 181.583573 699.633007 181.414381 699.527195 181.28472 699.361576 181.197753 699.172954 181.161385 698.987399 181.180359L694.731906 181.180359C694.382265 181.180359 694.173708 181.120273 694.106233 181.000099 694.034158 180.862532 693.998888 180.705991 694.005022 180.549449L694.005022 177.663705C693.974352 177.440752 694.086298 177.222542 694.282587 177.122925 694.549418 177.029632 694.831584 176.98852 695.112217 177.002751L709.88913 177.002751C710.165162 176.993264 710.43966 177.028051 710.704958 177.107112 710.907381 177.192499 711.026995 177.410708 710.994791 177.633662L710.994791 180.547868C710.997858 180.705991 710.957987 180.860951 710.882845 180.998518M733.125502 182.669788C732.951285 182.341095 732.706768 182.059809 732.410293 181.844894 732.095478 181.618917 731.743987 181.45141 731.374156 181.348693 730.975289 181.239655 730.564197 181.187507 730.151576 181.190667L728.079302 181.190667C727.917311 181.168544 727.755319 181.236495 727.655984 181.370817 727.591799 181.478274 727.556649 181.603114 727.555121 181.729535L727.555121 185.964625C727.536783 186.124231 727.578045 186.285417 727.671266 186.414999 727.807278 186.512975 727.973855 186.555642 728.138903 186.535098L730.849975 186.535098C731.500999 186.54616 732.133684 186.310702 732.630357 185.874551 733.172877 185.349905 733.454071 184.597702 733.39447 183.832858 733.402111 183.428312 733.310417 183.026926 733.12703 182.669788L733.125502 182.669788zM738.558343 186.034157C738.159476 187.116633 737.470247 188.060047 736.57165 188.752199 736.235441 189.017683 735.870195 189.238919 735.482026 189.412747 735.364352 189.458575 735.251264 189.518624 735.147344 189.592896 735.162626 189.698774 735.197776 189.79991 735.248207 189.893145L738.796746 197.976163C738.929702 198.208461 739 198.472364 739 198.742588 738.980133 198.932218 738.775351 199.017552 738.38871 198.997009L734.137187 198.997009C733.729151 198.976466 733.475466 198.897453 733.373075 198.75681 733.244704 198.557697 733.137728 198.345943 733.052147 198.124707L729.995697 191.185796C729.965132 191.095721 729.902475 191.021449 729.821479 190.975622 729.726729 190.951918 729.628923 190.940856 729.531116 190.945597L727.755319 190.945597C727.619307 190.945597 727.536783 190.978782 727.507746 191.049894 727.472597 191.162092 727.458843 191.279031 727.464956 191.39597L727.464956 198.033052C727.464956 198.434437 727.377847 198.6936 727.205158 198.813699 726.948416 198.954342 726.658053 199.015972 726.36769 198.993849L722.727458 198.993849C722.340817 198.993849 722.123809 198.903774 722.076434 198.723624 722.021418 198.467623 721.996966 198.2053 722.004607 197.942977L722.004607 177.789953C721.983212 177.576618 722.0367 177.363283 722.15743 177.189455 722.36374 177.03775 722.617426 176.97454 722.868054 177.009306L730.54433 177.009306C731.773023 176.987182 732.99866 177.165751 734.173865 177.535532 735.127477 177.8342 736.016904 178.32408 736.788658 178.976726 737.473303 179.570903 738.014295 180.321526 738.370371 181.168544 738.735617 182.056648 738.919004 183.012704 738.908306 183.976661 738.917476 184.679876 738.799802 185.376769 738.558343 186.034157L738.558343 186.034157zM763.432037 184.846179C763.482906 183.963763 763.223935 183.090524 762.699826 182.376333 762.151053 181.749313 761.337143 181.415923 760.501652 181.475566 759.972919 181.455685 759.445727 181.55509 758.960155 181.764607 758.588655 181.934361 758.266482 182.194344 758.022926 182.520089 757.796326 182.841245 757.639093 183.205222 757.560477 183.59061 757.47107 184.000467 757.427908 184.4195 757.427908 184.840061L757.427908 191.110258C757.415576 191.625637 757.504983 192.139488 757.691504 192.621222 757.844112 193.014256 758.079961 193.372116 758.380553 193.668804 758.654939 193.934905 758.984819 194.138304 759.347071 194.265237 759.700074 194.389112 760.071574 194.453343 760.446158 194.453343 761.281649 194.516045 762.101725 194.207123 762.685952 193.61069 763.259389 192.797094 763.522985 191.809155 763.432037 190.821217L763.432037 184.846179zM768.543639 194.959547C768.280043 195.69056 767.871546 196.36193 767.342813 196.935423 766.872657 197.440097 766.305386 197.845366 765.673372 198.12676 765.070647 198.394391 764.443258 198.599319 763.798913 198.738487 763.196188 198.868479 762.584214 198.946474 761.967615 198.970943 761.381846 198.989295 760.888567 199 760.473905 199 760.00529 199 759.473474 198.980119 758.876915 198.941886 758.261858 198.900594 757.651425 198.818011 757.047158 198.695666 756.41052 198.565674 755.789297 198.366863 755.197363 198.099233 754.596179 197.831602 754.050489 197.45692 753.586499 196.993537 753.094762 196.49498 752.710929 195.901605 752.458124 195.250117 752.152907 194.431933 752.008007 193.563281 752.032671 192.691571L752.032671 184.321623C751.830735 182.250929 752.572194 180.198587 754.055114 178.727385 755.830918 177.46417 757.998262 176.861619 760.177938 177.026785 761.270859 177.025256 762.360697 177.136896 763.428954 177.361705 764.440175 177.565104 765.400527 177.965785 766.256058 178.537749 767.103881 179.11889 767.789847 179.903429 768.249213 180.819489 768.784112 181.949654 769.038459 183.1884 768.995297 184.436322L768.995297 192.02326C769.023044 193.020374 768.870436 194.015959 768.543639 194.959547L768.543639 194.959547zM794.723297 198.89366C794.461733 198.974284 794.187788 199.009063 793.91539 198.997997L782.764098 198.997997C782.374073 198.997997 782.145011 198.917373 782.092389 198.757706 782.021194 198.493702 781.99024 198.220214 782.004169 197.946725L782.004169 177.787604C781.982501 177.571026 782.045957 177.356029 782.179061 177.186877 782.372525 177.041438 782.613969 176.978204 782.852317 177.006659L786.364084 177.006659C786.678271 176.978204 786.994005 177.046181 787.271046 177.202686 787.475344 177.409778 787.57285 177.702237 787.534158 177.993116L787.534158 194.275969C787.534158 194.514679 787.588328 194.671184 787.688929 194.740742 787.848344 194.822947 788.026331 194.859306 788.204319 194.846659L794.263626 194.846659C794.635078 194.846659 794.851758 194.905151 794.910571 195.025297 794.977123 195.186544 795.006529 195.360439 794.998791 195.535914L794.998791 198.299257C795.000339 198.624914 794.909023 198.822521 794.723297 198.89366"/>
  </g>
</svg>
